<svg width="50" height="50" viewBox="0 0 50 50" fill="none" xmlns="http://www.w3.org/2000/svg">
<path d="M27.0833 43.75V47.9167H22.9166V43.75H6.24996C5.09938 43.75 4.16663 42.8173 4.16663 41.6667V8.33333C4.16663 7.18275 5.09938 6.25 6.24996 6.25H18.75C21.2389 6.25 23.4731 7.34115 25 9.07121C26.5268 7.34115 28.761 6.25 31.25 6.25H43.75C44.9006 6.25 45.8333 7.18275 45.8333 8.33333V41.6667C45.8333 42.8173 44.9006 43.75 43.75 43.75H27.0833ZM41.6666 39.5833V10.4167H31.25C28.9487 10.4167 27.0833 12.2821 27.0833 14.5833V39.5833H41.6666ZM22.9166 39.5833V14.5833C22.9166 12.2821 21.0512 10.4167 18.75 10.4167H8.33329V39.5833H22.9166Z" fill="#050E4A"/>
</svg>
