<svg width="50" height="50" viewBox="0 0 50 50" fill="none" xmlns="http://www.w3.org/2000/svg">
<path d="M4.16663 25.0001C4.16663 13.4941 13.494 4.16675 25 4.16675C36.5058 4.16675 45.8333 13.4941 45.8333 25.0001C45.8333 36.5059 36.5058 45.8334 25 45.8334H4.16663L10.2686 39.7315C6.49848 35.9613 4.16663 30.753 4.16663 25.0001ZM14.2259 41.6668H25C34.2048 41.6668 41.6666 34.2049 41.6666 25.0001C41.6666 15.7953 34.2048 8.33342 25 8.33342C15.7952 8.33342 8.33329 15.7953 8.33329 25.0001C8.33329 29.4843 10.1067 33.677 13.2149 36.7853L16.1611 39.7315L14.2259 41.6668ZM16.6666 27.0834H33.3333C33.3333 31.6857 29.6023 35.4168 25 35.4168C20.3976 35.4168 16.6666 31.6857 16.6666 27.0834Z" fill="#050E4A"/>
</svg>
