<svg width="30" height="30" viewBox="0 0 30 30" fill="none" xmlns="http://www.w3.org/2000/svg">
<path d="M16.2513 24.9226C21.1841 24.3075 25.0013 20.0995 25.0013 15C25.0013 9.47715 20.5241 5 15.0013 5C9.47838 5 5.00123 9.47715 5.00123 15C5.00123 20.0995 8.81834 24.3075 13.7513 24.9226V17.5H11.2512V15H13.7513V12.9323C13.7513 11.2607 13.9253 10.6545 14.2521 10.0434C14.5789 9.4323 15.0585 8.9527 15.6696 8.62587C16.148 8.37005 16.7414 8.21565 17.7784 8.14942C18.1899 8.12314 18.7226 8.15666 19.3763 8.25V10.625H18.7513C17.6046 10.625 17.1315 10.6791 16.8486 10.8304C16.6733 10.9242 16.5505 11.047 16.4566 11.2224C16.3054 11.5052 16.2513 11.7857 16.2513 12.9323V15H19.3763L18.7513 17.5H16.2513V24.9226ZM15.0013 27.5C8.09767 27.5 2.50123 21.9035 2.50123 15C2.50123 8.09644 8.09767 2.5 15.0013 2.5C21.9048 2.5 27.5013 8.09644 27.5013 15C27.5013 21.9035 21.9048 27.5 15.0013 27.5Z" fill="#F5F5F5"/>
</svg>
