<svg width="50" height="50" viewBox="0 0 50 50" fill="none" xmlns="http://www.w3.org/2000/svg">
<path d="M39.5833 45.8332H10.4167C6.96489 45.8332 4.16666 43.035 4.16666 39.5832V6.24984C4.16666 5.09925 5.09941 4.1665 6.24999 4.1665H35.4167C36.5673 4.1665 37.5 5.09925 37.5 6.24984V31.2498H45.8333V39.5832C45.8333 43.035 43.0352 45.8332 39.5833 45.8332ZM37.5 35.4165V39.5832C37.5 40.7338 38.4327 41.6665 39.5833 41.6665C40.734 41.6665 41.6667 40.7338 41.6667 39.5832V35.4165H37.5ZM33.3333 41.6665V8.33317H8.33332V39.5832C8.33332 40.7338 9.26607 41.6665 10.4167 41.6665H33.3333ZM12.5 14.5832H29.1667V18.7498H12.5V14.5832ZM12.5 22.9165H29.1667V27.0832H12.5V22.9165ZM12.5 31.2498H22.9167V35.4165H12.5V31.2498Z" fill="#050E4A"/>
</svg>
