<svg width="30" height="30" viewBox="0 0 30 30" fill="none" xmlns="http://www.w3.org/2000/svg">
<path d="M15.0013 11.25C12.9295 11.25 11.2512 12.9289 11.2512 15C11.2512 17.0716 12.9301 18.75 15.0013 18.75C17.0729 18.75 18.7513 17.0711 18.7513 15C18.7513 12.9284 17.0724 11.25 15.0013 11.25ZM15.0013 8.75C18.4518 8.75 21.2513 11.5464 21.2513 15C21.2513 18.4506 18.4549 21.25 15.0013 21.25C11.5506 21.25 8.75123 18.4536 8.75123 15C8.75123 11.5494 11.5476 8.75 15.0013 8.75ZM23.1263 8.43644C23.1263 9.29907 22.4253 9.99896 21.5638 9.99896C20.7011 9.99896 20.0013 9.298 20.0013 8.43644C20.0013 7.57487 20.7021 6.875 21.5638 6.875C22.4241 6.87391 23.1263 7.57487 23.1263 8.43644ZM15.0013 5C11.9081 5 11.404 5.00819 9.96534 5.07225C8.98519 5.11826 8.32817 5.25009 7.7177 5.48709C7.1752 5.69749 6.78387 5.94872 6.3669 6.36569C5.94834 6.78425 5.69755 7.17454 5.488 7.71729C5.25045 8.32915 5.11867 8.98514 5.07348 9.96394C5.00879 11.344 5.00123 11.8263 5.00123 15C5.00123 18.0931 5.00942 18.5972 5.07347 20.0358C5.1195 21.0155 5.2515 21.6735 5.48793 22.2825C5.69888 22.8258 5.95063 23.218 6.36558 23.633C6.78579 24.0526 7.17724 24.3042 7.71484 24.5117C8.33274 24.7506 8.98935 24.8826 9.96515 24.9277C11.3452 24.9924 11.8275 25 15.0013 25C18.0944 25 18.5985 24.9917 20.037 24.9277C21.0146 24.8819 21.6731 24.7495 22.2838 24.5132C22.8255 24.3029 23.219 24.0503 23.6343 23.6356C24.0545 23.2148 24.3056 22.8243 24.5134 22.2854C24.7516 21.6698 24.8839 21.0123 24.929 20.0361C24.9936 18.656 25.0013 18.1736 25.0013 15C25.0013 11.9069 24.993 11.4028 24.929 9.96421C24.883 8.98633 24.7506 8.32686 24.5141 7.71648C24.3043 7.17548 24.0521 6.78294 23.6355 6.36569C23.2163 5.94644 22.827 5.69616 22.2839 5.48677C21.6725 5.24942 21.0155 5.11745 20.0373 5.07226C18.6573 5.00756 18.1749 5 15.0013 5ZM15.0013 2.5C18.397 2.5 18.821 2.5125 20.1544 2.575C21.4845 2.63646 22.3919 2.84688 23.1888 3.15625C24.0126 3.47396 24.7085 3.90312 25.4033 4.59791C26.097 5.29271 26.5263 5.99062 26.845 6.8125C27.1533 7.60834 27.3638 8.51666 27.4263 9.84688C27.4856 11.1802 27.5013 11.6042 27.5013 15C27.5013 18.3959 27.4888 18.8197 27.4263 20.1531C27.3648 21.4834 27.1533 22.3906 26.845 23.1875C26.5273 24.0115 26.097 24.7072 25.4033 25.4021C24.7085 26.0959 24.0095 26.525 23.1888 26.8438C22.3919 27.1521 21.4845 27.3625 20.1544 27.425C18.821 27.4844 18.397 27.5 15.0013 27.5C11.6054 27.5 11.1814 27.4875 9.8481 27.425C8.51789 27.3635 7.61164 27.1521 6.81373 26.8438C5.9908 26.526 5.29393 26.0959 4.59914 25.4021C3.90435 24.7072 3.47623 24.0084 3.15748 23.1875C2.8481 22.3906 2.63873 21.4834 2.57623 20.1531C2.51685 18.8197 2.50123 18.3959 2.50123 15C2.50123 11.6042 2.51373 11.1802 2.57623 9.84688C2.63768 8.51562 2.8481 7.60937 3.15748 6.8125C3.47518 5.98959 3.90435 5.29271 4.59914 4.59791C5.29393 3.90312 5.99185 3.475 6.81373 3.15625C7.6106 2.84688 8.51685 2.6375 9.8481 2.575C11.1814 2.51562 11.6054 2.5 15.0013 2.5Z" fill="#F5F5F5"/>
</svg>
