<svg width="50" height="50" viewBox="0 0 50 50" fill="none" xmlns="http://www.w3.org/2000/svg">
<path d="M37.5008 35.4168V45.8334H33.3341V35.4168C33.3341 26.1432 38.8425 18.1563 46.7656 14.5491L48.4902 18.3432C42.0077 21.2945 37.5008 27.8295 37.5008 35.4168ZM16.6676 35.4168V45.8334H12.5009V35.4168C12.5009 27.8295 7.99419 21.2945 1.5116 18.3432L3.23619 14.5491C11.1594 18.1563 16.6676 26.1432 16.6676 35.4168ZM25.0008 25.0001C19.2479 25.0001 14.5842 20.3364 14.5842 14.5834C14.5842 8.83046 19.2479 4.16675 25.0008 4.16675C30.7539 4.16675 35.4175 8.83046 35.4175 14.5834C35.4175 20.3364 30.7539 25.0001 25.0008 25.0001ZM25.0008 20.8334C28.4527 20.8334 31.2508 18.0352 31.2508 14.5834C31.2508 11.1316 28.4527 8.33342 25.0008 8.33342C21.5491 8.33342 18.7509 11.1316 18.7509 14.5834C18.7509 18.0352 21.5491 20.8334 25.0008 20.8334Z" fill="#050E4A"/>
</svg>
