<svg width="50" height="50" viewBox="0 0 50 50" fill="none" xmlns="http://www.w3.org/2000/svg">
<path d="M27.3337 35.464L18.586 30.6923C17.0653 32.3175 14.9013 33.3332 12.5 33.3332C7.89762 33.3332 4.16667 29.6021 4.16667 24.9998C4.16667 20.3975 7.89762 16.6665 12.5 16.6665C14.9011 16.6665 17.0651 17.682 18.5858 19.307L27.3337 14.5355C27.1702 13.884 27.0833 13.2021 27.0833 12.4998C27.0833 7.89746 30.8144 4.1665 35.4167 4.1665C40.019 4.1665 43.75 7.89746 43.75 12.4998C43.75 17.1022 40.019 20.8332 35.4167 20.8332C33.0154 20.8332 30.8515 19.8176 29.3306 18.1925L20.5829 22.964C20.7465 23.6155 20.8333 24.2975 20.8333 24.9998C20.8333 25.7021 20.7465 26.384 20.5829 27.0355L29.3308 31.8071C30.8515 30.1821 33.0154 29.1665 35.4167 29.1665C40.019 29.1665 43.75 32.8975 43.75 37.4998C43.75 42.1021 40.019 45.8332 35.4167 45.8332C30.8144 45.8332 27.0833 42.1021 27.0833 37.4998C27.0833 36.7975 27.1702 36.1155 27.3337 35.464ZM12.5 29.1665C14.8012 29.1665 16.6667 27.3011 16.6667 24.9998C16.6667 22.6986 14.8012 20.8332 12.5 20.8332C10.1988 20.8332 8.33333 22.6986 8.33333 24.9998C8.33333 27.3011 10.1988 29.1665 12.5 29.1665ZM35.4167 16.6665C37.7179 16.6665 39.5833 14.801 39.5833 12.4998C39.5833 10.1987 37.7179 8.33317 35.4167 8.33317C33.1154 8.33317 31.25 10.1987 31.25 12.4998C31.25 14.801 33.1154 16.6665 35.4167 16.6665ZM35.4167 41.6665C37.7179 41.6665 39.5833 39.8011 39.5833 37.4998C39.5833 35.1986 37.7179 33.3332 35.4167 33.3332C33.1154 33.3332 31.25 35.1986 31.25 37.4998C31.25 39.8011 33.1154 41.6665 35.4167 41.6665Z" fill="#050E4A"/>
</svg>
