<svg width="50" height="50" viewBox="0 0 50 50" fill="none" xmlns="http://www.w3.org/2000/svg">
<path d="M35.2786 18.677C34.2209 10.491 27.224 4.16675 18.75 4.16675C9.54529 4.16675 2.08337 11.6287 2.08337 20.8334C2.08337 24.7759 3.45227 28.3986 5.74067 31.2524C7.42402 33.3515 8.33406 35.6776 8.33389 38.1378L8.33337 45.8334H27.0834L27.0855 39.5834H31.25C33.5513 39.5834 35.4167 37.718 35.4167 35.4168V29.3147L39.4986 27.5661C40.2136 27.2599 40.2759 26.5349 39.9671 26.0495L35.2786 18.677ZM6.25004 20.8334C6.25004 13.9299 11.8465 8.33342 18.75 8.33342C25.0507 8.33342 30.3469 13.0239 31.1461 19.2109L31.265 20.1305L34.4786 25.1836L31.25 26.5665V35.4168H22.9202L22.9182 41.6668H12.5003L12.5006 38.1382C12.5008 34.7234 11.2701 31.4876 8.99125 28.6457C7.22542 26.4436 6.25004 23.7186 6.25004 20.8334ZM44.0698 37.7134L40.6027 35.402C42.5909 32.4255 43.75 28.8482 43.75 25.0003C43.75 21.1522 42.5909 17.5749 40.6027 14.5985L44.0698 12.287C46.5 15.9248 47.9167 20.297 47.9167 25.0003C47.9167 29.7034 46.5 34.0755 44.0698 37.7134Z" fill="#050E4A"/>
</svg>
