<svg width="50" height="50" viewBox="0 0 50 50" fill="none" xmlns="http://www.w3.org/2000/svg">
<path d="M25 22.9165C30.7529 22.9165 35.4167 27.5803 35.4167 33.3332V45.8332H31.25V33.3332C31.25 30.0046 28.6481 27.2838 25.3673 27.0938L25 27.0832C21.6715 27.0832 18.9507 29.685 18.7606 32.9659L18.75 33.3332V45.8332H14.5834V33.3332C14.5834 27.5803 19.2471 22.9165 25 22.9165ZM11.4584 29.1665C12.0393 29.1665 12.6044 29.2344 13.1461 29.3628C12.7959 30.404 12.5807 31.504 12.5187 32.6442L12.5 33.3332L12.5015 33.5115C12.2658 33.4282 12.0171 33.3721 11.7593 33.3475L11.4584 33.3332C9.83398 33.3332 8.49908 34.5725 8.34767 36.1571L8.33335 36.4582V45.8332H4.16669V36.4582C4.16669 32.4311 7.43127 29.1665 11.4584 29.1665ZM38.5417 29.1665C42.5688 29.1665 45.8334 32.4311 45.8334 36.4582V45.8332H41.6667V36.4582C41.6667 34.8338 40.4273 33.499 38.8427 33.3475L38.5417 33.3332C38.1767 33.3332 37.8263 33.3957 37.5006 33.5107L37.5 33.3332C37.5 31.9463 37.2742 30.6123 36.8573 29.3657C37.3956 29.2344 37.9606 29.1665 38.5417 29.1665ZM11.4584 16.6665C14.3348 16.6665 16.6667 18.9984 16.6667 21.8748C16.6667 24.7513 14.3348 27.0832 11.4584 27.0832C8.58187 27.0832 6.25002 24.7513 6.25002 21.8748C6.25002 18.9984 8.58187 16.6665 11.4584 16.6665ZM38.5417 16.6665C41.4181 16.6665 43.75 18.9984 43.75 21.8748C43.75 24.7513 41.4181 27.0832 38.5417 27.0832C35.6652 27.0832 33.3334 24.7513 33.3334 21.8748C33.3334 18.9984 35.6652 16.6665 38.5417 16.6665ZM11.4584 20.8332C10.8831 20.8332 10.4167 21.2996 10.4167 21.8748C10.4167 22.45 10.8831 22.9165 11.4584 22.9165C12.0336 22.9165 12.5 22.45 12.5 21.8748C12.5 21.2996 12.0336 20.8332 11.4584 20.8332ZM38.5417 20.8332C37.9665 20.8332 37.5 21.2996 37.5 21.8748C37.5 22.45 37.9665 22.9165 38.5417 22.9165C39.1169 22.9165 39.5834 22.45 39.5834 21.8748C39.5834 21.2996 39.1169 20.8332 38.5417 20.8332ZM25 4.1665C29.6023 4.1665 33.3334 7.89746 33.3334 12.4998C33.3334 17.1022 29.6023 20.8332 25 20.8332C20.3976 20.8332 16.6667 17.1022 16.6667 12.4998C16.6667 7.89746 20.3976 4.1665 25 4.1665ZM25 8.33317C22.6988 8.33317 20.8334 10.1987 20.8334 12.4998C20.8334 14.801 22.6988 16.6665 25 16.6665C27.3013 16.6665 29.1667 14.801 29.1667 12.4998C29.1667 10.1987 27.3013 8.33317 25 8.33317Z" fill="#050E4A"/>
</svg>
