<svg width="30" height="30" viewBox="0 0 30 30" fill="none" xmlns="http://www.w3.org/2000/svg">
<path d="M20 10.3067V19.375C20 23.8624 16.3624 27.5 11.875 27.5C7.38769 27.5 3.75 23.8624 3.75 19.375C3.75 14.8876 7.38769 11.25 11.875 11.25C12.5204 11.25 13.1481 11.3252 13.75 11.4674V15.421C13.1817 15.151 12.546 15 11.875 15C9.45875 15 7.5 16.9588 7.5 19.375C7.5 21.7912 9.45875 23.75 11.875 23.75C14.2912 23.75 16.25 21.7912 16.25 19.375V2.5H20C20 5.95178 22.7983 8.75 26.25 8.75V12.5C23.8851 12.5 21.712 11.6791 20 10.3067Z" fill="#050E4A"/>
</svg>
